<?xml version="1.0" encoding="utf-8"?>
<!-- Generator: Adobe Illustrator 23.0.1, SVG Export Plug-In . SVG Version: 6.00 Build 0)  -->
<svg version="1.1" id="Ebene_1" xmlns="http://www.w3.org/2000/svg" xmlns:xlink="http://www.w3.org/1999/xlink" x="0px" y="0px"
	 viewBox="0 0 100 100.9" style="enable-background:new 0 0 100 100.9;" xml:space="preserve">
<title>35</title>
<path d="M91.8,58.6c1.4,0,2.5-1,2.7-2.4c0.6-4.1,0.6-8.4,0-12.5c-0.2-1.4-1.4-2.3-2.7-2.4h-9.9c-0.7-2.7-1.8-5.4-3.3-7.8l7-7
	c1-1,1.1-2.5,0.3-3.6c-2.5-3.4-5.5-6.3-8.9-8.9c-1.1-0.8-2.6-0.7-3.6,0.3l-7,7c-2.5-1.4-5.1-2.5-7.8-3.3V8.2c0-1.4-1-2.5-2.4-2.7
	c-4.1-0.6-8.4-0.6-12.5,0c-1.4,0.2-2.3,1.4-2.4,2.7v9.9c-2.7,0.7-5.4,1.8-7.8,3.3l-7-7c-1-1-2.5-1.1-3.6-0.3
	c-3.4,2.5-6.3,5.5-8.9,8.9c-0.8,1.1-0.7,2.6,0.3,3.6l7,7c-1.4,2.5-2.5,5.1-3.3,7.8H8.2c-1.4,0-2.5,1-2.7,2.4
	c-0.6,4.1-0.6,8.4,0,12.5c0.2,1.4,1.4,2.3,2.7,2.4h9.9c0.7,2.7,1.8,5.4,3.3,7.8l-7,7c-1,1-1.1,2.5-0.3,3.6c2.5,3.4,5.5,6.3,8.9,8.9
	c1.1,0.8,2.6,0.7,3.6-0.3l7-7c2.5,1.4,5.1,2.5,7.8,3.3v9.9c0,1.4,1,2.5,2.4,2.7c4.1,0.6,8.4,0.6,12.5,0c1.4-0.2,2.3-1.4,2.4-2.7V82
	c2.3-0.6,4.5-1.5,6.6-2.6L78,92.1c3.9,3.9,10.2,3.9,14,0c3.9-3.9,3.9-10.2,0-14l0,0L79.3,65.3c1.1-2.1,2-4.3,2.6-6.6h9.9V58.6z
	 M89.5,80.6c2.5,2.5,2.5,6.5,0,9s-6.5,2.5-8.9,0L56.9,65.9l-1.1,0.4c-5.5,1.9-11.6,0.9-16.1-2.7c-4.1-3.3-6.5-8.3-6.3-13.6
	c0-0.4,0.3-0.8,0.7-1s0.8-0.1,1.1,0.2l5.9,5.9c1.9,1.9,4.5,3,7.2,2.9c2.7,0,5.3-1.2,7.1-3.1c3.6-4.1,3.4-10.3-0.5-14.1l-5.7-5.7
	c-0.3-0.3-0.4-0.7-0.2-1.1c0.2-0.4,0.6-0.7,1-0.7c4.6-0.1,9,1.7,12.3,4.9c4.6,4.6,6.2,11.4,4,17.5l-0.4,1.1L89.5,80.6z M79.1,55
	l-0.3,1.4c-0.5,2.1-1.2,4.2-2.1,6.2L70,55.9c2-7.2,0-14.9-5.2-20.2c-3.9-4-9.3-6.1-14.9-6c-1.9,0-3.6,1.2-4.3,2.9s-0.3,3.7,1,5
	l5.7,5.7c2.5,2.4,2.7,6.4,0.4,9.1c-2.4,2.5-6.4,2.7-8.9,0.3l-0.1-0.1l-5.9-5.9c-1.3-1.3-3.3-1.7-5-1c-1.8,0.7-2.9,2.4-2.9,4.2
	c-0.1,6.4,2.7,12.5,7.7,16.4c5.2,4.1,12.1,5.5,18.5,3.7l6.7,6.7c-2,0.9-4,1.6-6.2,2.1L55,79.1v12c-3.3,0.4-6.7,0.4-10,0v-12
	l-1.4-0.3c-3.3-0.7-6.5-2.1-9.4-3.9L33,74.1l-8.5,8.5c-2.6-2.1-5-4.5-7.1-7.1l8.5-8.5l-0.8-1.2c-1.8-2.9-3.1-6-3.9-9.4L20.9,55h-12
	c-0.4-3.3-0.4-6.7,0-10h12l0.3-1.4c0.7-3.3,2.1-6.5,3.9-9.4l0.8-1.2l-8.5-8.5c2.1-2.6,4.5-5,7.1-7.1l8.5,8.5l1.2-0.8
	c2.9-1.8,6-3.1,9.4-3.9l1.4-0.3v-12c3.3-0.4,6.7-0.4,10,0v12l1.4,0.3c3.3,0.7,6.5,2.1,9.4,3.9l1.2,0.8l8.5-8.5
	c2.6,2.1,5,4.5,7.1,7.1L74.1,33l0.8,1.2c1.8,2.9,3.1,6,3.9,9.4l0.3,1.4h12c0.4,3.3,0.4,6.7,0,10H79.1z"/>
</svg>
