<?xml version="1.0" encoding="utf-8"?>
<!-- Generator: Adobe Illustrator 23.0.1, SVG Export Plug-In . SVG Version: 6.00 Build 0)  -->
<svg version="1.1" id="Ebene_1" xmlns="http://www.w3.org/2000/svg" xmlns:xlink="http://www.w3.org/1999/xlink" x="0px" y="0px"
	 viewBox="0 0 24 23.9" style="enable-background:new 0 0 24 23.9;" xml:space="preserve">
<g>
	<path d="M21.2,10.7L19,10.1L18.9,10l-0.6-1.4V8.5l1.1-2c0.1-0.2,0.1-0.6-0.1-0.8c0,0-0.3-0.3-0.5-0.6c-0.2-0.2-0.6-0.5-0.6-0.5
		c-0.2-0.2-0.5-0.2-0.8-0.1l-2,1.1h-0.1L13.9,5C14,5.1,14,5,14,5l-0.6-2.2c-0.1-0.2-0.3-0.5-0.6-0.5h-1.5c-0.3,0-0.6,0.3-0.6,0.5
		L10,5L9.9,5.1L8.6,5.7H8.5l-2-1.1c-0.2-0.2-0.6-0.2-0.8,0c0,0-0.3,0.3-0.6,0.5C4.9,5.4,4.6,5.7,4.6,5.7C4.4,5.9,4.4,6.3,4.5,6.5
		l1.1,2v0.1L5.1,10C5,10,5,10,5,10l-2.2,0.6c-0.3,0.1-0.5,0.3-0.5,0.6v1.6c0,0.3,0.2,0.5,0.5,0.6L5,14c0,0,0,0,0.1,0.1l0.6,1.4v0.1
		l-1.1,2c-0.1,0.2-0.1,0.6,0.1,0.8c0,0,0.3,0.3,0.5,0.6c0.2,0.2,0.6,0.5,0.6,0.5c0.2,0.2,0.5,0.2,0.8,0.1l2-1.1h0.1L9.9,19
		c0.1,0,0.1,0,0.1,0l0.6,2.2c0.1,0.2,0.3,0.5,0.6,0.5h1.5c0.3,0,0.5-0.3,0.6-0.5l0.6-2.2l0.1-0.1l1.4-0.6h0.1l2,1.1
		c0.2,0.1,0.6,0.1,0.8-0.1c0,0,0.3-0.3,0.6-0.5c0.2-0.2,0.5-0.6,0.5-0.6c0.2-0.2,0.2-0.5,0.1-0.8l-1.1-2v-0.1l0.6-1.4l0.1-0.1
		l2.2-0.6c0.3-0.1,0.5-0.3,0.5-0.6V11C21.7,11,21.5,10.7,21.2,10.7z M21,12.8l-2.2,0.6c-0.2,0.1-0.4,0.3-0.5,0.5l-0.6,1.3
		c-0.1,0.2-0.1,0.5,0,0.7l1.1,2c0,0-0.3,0.3-0.5,0.5s-0.6,0.5-0.6,0.5l-2-1.1c-0.1-0.1-0.2-0.1-0.4-0.1c-0.1,0-0.2,0-0.3,0.1
		l-1.3,0.6c-0.2,0.1-0.4,0.3-0.5,0.5l-0.6,2.2l0,0h-1.5l0,0l-0.6-2.2c-0.1-0.2-0.3-0.5-0.5-0.5l-1.3-0.6c-0.2-0.1-0.5-0.1-0.7,0
		l-2,1.1c0,0-0.3-0.3-0.5-0.5S5,17.8,5,17.8l1.1-2c0.1-0.2,0.1-0.5,0-0.7l-0.6-1.3c-0.1-0.2-0.3-0.4-0.5-0.5l-2-0.5v-1.5l2.2-0.6
		c0.2-0.1,0.5-0.3,0.5-0.5l0.6-1.3c0.1-0.2,0.1-0.5,0-0.7l-1.1-2l0,0l0,0c0,0,0.3-0.3,0.5-0.5s0.5-0.5,0.6-0.5l2,1.1
		c0.1,0.1,0.2,0.1,0.4,0.1c0.1,0,0.2,0,0.3-0.1l1.3-0.6c0.2-0.1,0.4-0.3,0.5-0.5L11.4,3V2.9h1.4V3l0.6,2.2c0.1,0.2,0.3,0.5,0.5,0.5
		l1.3,0.6c0.1,0.1,0.3,0.1,0.3,0.1c0.1,0,0.3,0,0.4-0.1l2-1.1c0,0,0.3,0.3,0.5,0.5s0.5,0.5,0.5,0.6l-1.1,2c-0.1,0.2-0.1,0.5,0,0.7
		l0.6,1.3c0.1,0.2,0.3,0.4,0.5,0.5l2.2,0.6L21,12.8z"/>
	<path d="M12,8.7c-0.9,0-1.7,0.3-2.4,1c-0.6,0.6-1,1.5-1,2.4c0,0.9,0.3,1.7,1,2.4c0.6,0.6,1.5,1,2.4,1s1.7-0.3,2.4-1
		c0.6-0.6,1-1.5,1-2.4s-0.3-1.7-1-2.4C13.7,9,12.9,8.7,12,8.7z M13.9,13.9c-0.5,0.5-1.2,0.8-1.9,0.8s-1.4-0.3-1.9-0.8
		S9.3,12.7,9.3,12s0.3-1.4,0.8-1.9s1.2-0.8,1.9-0.8s1.4,0.3,1.9,0.8s0.8,1.2,0.8,1.9C14.7,12.8,14.4,13.4,13.9,13.9z"/>
</g>
</svg>
