<?xml version="1.0" encoding="utf-8"?>
<!-- Generator: Adobe Illustrator 23.0.1, SVG Export Plug-In . SVG Version: 6.00 Build 0)  -->
<svg version="1.1" id="Ebene_1" xmlns="http://www.w3.org/2000/svg" xmlns:xlink="http://www.w3.org/1999/xlink" x="0px" y="0px"
	 viewBox="0 0 100 101.7" style="enable-background:new 0 0 100 101.7;" xml:space="preserve">
<g>
	<g>
		<path d="M5273.1,2400.1v-2c0-2.8-5-4-9.7-4s-9.7,1.3-9.7,4v2c0,1.8,0.7,3.6,2,4.9l5,4.9c0.3,0.3,0.4,0.6,0.4,1v6.4
			c0,0.4,0.2,0.7,0.6,0.8l2.9,0.9c0.5,0.1,1-0.2,1-0.8v-7.2c0-0.4,0.2-0.7,0.4-1l5.1-5C5272.4,2403.7,5273.1,2401.9,5273.1,2400.1z
			 M5263.4,2400c-4.8,0-7.4-1.3-7.5-1.8l0,0c0.1-0.5,2.7-1.8,7.5-1.8s7.3,1.3,7.5,1.8C5270.7,2398.7,5268.2,2400,5263.4,2400z"/>
		<path d="M5268.4,2410.3c-0.6,0-1,0.4-1,1s0.4,1,1,1h4.3c0.6,0,1-0.4,1-1s-0.4-1-1-1H5268.4z"/>
		<path d="M5272.7,2413.7h-4.3c-0.6,0-1,0.4-1,1s0.4,1,1,1h4.3c0.6,0,1-0.4,1-1C5273.7,2414.1,5273.3,2413.7,5272.7,2413.7z"/>
		<path d="M5272.7,2417h-4.3c-0.6,0-1,0.4-1,1s0.4,1,1,1h4.3c0.6,0,1-0.4,1-1C5273.7,2417.5,5273.3,2417,5272.7,2417z"/>
	</g>
	<g>
		<path d="M28.4,14l-6.7-0.5c-0.6-0.1-1.1-0.4-1.4-1l-2.6-6.2c-0.6-1.3-2.5-1.3-3,0l-2.6,6.2c-0.2,0.6-0.8,1-1.4,1L4,14
			c-1.5,0.1-2,1.9-0.9,2.9l5.1,4.4c0.5,0.4,0.7,1,0.5,1.6l-1.6,6.6c-0.3,1.4,1.2,2.5,2.5,1.8l5.8-3.5c0.5-0.3,1.2-0.3,1.7,0l5.8,3.5
			c1.2,0.8,2.8-0.4,2.5-1.8l-1.6-6.6c-0.1-0.6,0.1-1.2,0.5-1.6l5.1-4.4C30.5,15.9,29.9,14.1,28.4,14z"/>
		<path d="M42.2,25.9h50.2c2.8,0,5.1-2.3,5.1-5.1s-2.3-5.1-5.1-5.1H42.2c-2.8,0-5.1,2.3-5.1,5.1S39.4,25.9,42.2,25.9z"/>
		<path d="M28.4,45.6l-6.7-0.5c-0.6,0-1.1-0.4-1.4-1l-2.6-6.2c-0.6-1.3-2.5-1.3-3,0l-2.6,6.2c-0.2,0.6-0.8,1-1.4,1L4,45.6
			c-1.5,0.1-2,1.9-0.9,2.9l5.1,4.4c0.5,0.4,0.7,1,0.5,1.6l-1.6,6.6c-0.3,1.4,1.2,2.5,2.5,1.8l5.8-3.5c0.5-0.3,1.2-0.3,1.7,0l5.8,3.5
			c1.2,0.8,2.8-0.4,2.5-1.8l-1.6-6.6c-0.1-0.6,0.1-1.2,0.5-1.6l5.1-4.4C30.5,47.6,29.9,45.8,28.4,45.6z"/>
		<path d="M92.4,47.4H42.2c-2.8,0-5.1,2.3-5.1,5.1s2.3,5.1,5.1,5.1h50.2c2.8,0,5.1-2.3,5.1-5.1S95.2,47.4,92.4,47.4z"/>
		<path d="M28.4,77.3l-6.7-0.5c-0.6,0-1.1-0.4-1.4-1l-2.6-6.2c-0.6-1.3-2.5-1.3-3,0l-2.6,6.2c-0.2,0.6-0.8,1-1.4,1L4,77.3
			c-1.5,0.1-2,1.9-0.9,2.9l5.1,4.4c0.5,0.4,0.7,1,0.5,1.6l-1.6,6.6c-0.3,1.4,1.2,2.5,2.5,1.8l5.8-3.5c0.5-0.3,1.2-0.3,1.7,0l5.8,3.5
			c1.2,0.8,2.8-0.4,2.5-1.8l-1.6-6.6c-0.1-0.6,0.1-1.2,0.5-1.6l5.1-4.4C30.5,79.2,29.9,77.4,28.4,77.3z"/>
		<path d="M92.4,79.1H42.2c-2.8,0-5.1,2.3-5.1,5.1c0,2.8,2.3,5.1,5.1,5.1h50.2c2.8,0,5.1-2.3,5.1-5.1C97.5,81.3,95.2,79.1,92.4,79.1
			z"/>
	</g>
</g>
</svg>
