<?xml version="1.0" encoding="utf-8"?>
<!-- Generator: Adobe Illustrator 23.0.1, SVG Export Plug-In . SVG Version: 6.00 Build 0)  -->
<svg version="1.1" id="Ebene_1" xmlns="http://www.w3.org/2000/svg" xmlns:xlink="http://www.w3.org/1999/xlink" x="0px" y="0px"
	 viewBox="0 0 78.9 81.2" style="enable-background:new 0 0 78.9 81.2;" xml:space="preserve">
<g>
	<path d="M38.9,8h24.4c2.1,0,4,0.8,5.3,2.2s2.2,3.3,2.2,5.3v34.3v14.5v0.1v0.1l0,0v0.1l0,0v0.1l0,0v0.1l0,0v0.1l0,0V65l0,0v0.1l0,0
		v0.1l0,0v0.1l0,0v0.1l0,0v0.1l0,0v0.1l0,0v0.1l0,0v0.1l0,0v0.1l0,0V66l0,0v0.1l0,0v0.1l0,0v0.1l0,0v0.1l0,0v0.1l0,0v0.1l0,0v0.1
		l0,0v0.1l0,0v0.1l0,0V67l0,0v0.1l0,0v0.1l0,0l0,0l-0.1,0.1l0,0l0,0v0.1l0,0v0.1l0,0v0.1l0,0v0.1l0,0l-0.1,0.2l0,0l0,0V68v0.1l0,0
		v0.1l0,0v0.1l0,0v0.1l0,0v0.1l0,0v0.1l0,0v0.1l0,0v0.1v0.1l0,0V69l0,0v0.1l0,0v0.1l0,0c-0.1,0.1-0.1,0.2-0.2,0.3l0,0
		c-0.1,0.2-0.3,0.3-0.4,0.5l0,0c-0.1,0.1-0.1,0.1-0.2,0.2l0,0l0,0c-1.3,1.3-3,2.1-4.9,2.2l0,0h-0.1l0,0h-0.1l0,0h-0.1l0,0h-0.1l0,0
		h-0.1H38.9H22L21.9,72l0,0h-0.1l0,0h-0.1l0,0h-0.1l0,0h-0.1l0,0c-1.9-0.1-3.6-0.9-4.9-2.2l0,0l0,0c-0.1-0.1-0.1-0.1-0.2-0.2l0,0
		c-0.1-0.2-0.3-0.3-0.4-0.5l0,0c-0.1-0.1-0.1-0.2-0.2-0.3l0,0v-0.1l0,0v-0.1l0,0v-0.1l0,0v-0.1v-0.1l0,0v-0.1l0,0v-0.1l0,0V68l0,0
		v-0.1l0,0v-0.1l0,0v-0.1l0,0v-0.1v-0.1l0,0l0,0l-0.1-0.2l0,0v-0.1l0,0v-0.1l0,0V67l0,0v-0.1l0,0l0,0v-0.1l0,0l0,0v-0.1l0,0v-0.1
		l0,0v-0.1l0,0v-0.1l0,0v-0.1l0,0v-0.1l0,0v-0.1l0,0V66l0,0v-0.1l0,0v-0.1l0,0v-0.1l0,0v-0.1l0,0v-0.1l0,0v-0.1l0,0v-0.1l0,0v-0.1
		l0,0v-0.1l0,0V65l0,0v-0.1l0,0v-0.1l0,0v-0.1l0,0v-0.1l0,0v-0.1l0,0v-0.1l0,0v-0.1l0,0v-0.1l0,0v-0.1l0,0V64v-0.1V56
		c0-0.6,0.4-1,1-1h6.1c0.5,0,1,0.5,1,1v7.9h15.1h23.9v-14V16.1H38.9H22.5V24c0,0.5-0.5,1-1,1h-6.1c-0.6,0-1-0.4-1-1v-8.4
		c0-2.1,0.8-4,2.2-5.3C18,8.8,19.9,8,22,8H38.9L38.9,8z M27.5,28.1v5c0,0.6-0.5,1.1-1.1,1.1H8c-0.6,0-1.1,0.5-1.1,1.1v9.1
		c0,0.6,0.5,1.1,1.1,1.1h18.4c0.6,0,1.1,0.5,1.1,1.1v5c0,0.4,0.2,0.8,0.6,1s0.8,0.2,1.2-0.1l16.8-11.9c0.3-0.2,0.5-0.5,0.5-0.9
		s-0.2-0.7-0.5-0.9L29.3,27.2c-0.4-0.2-0.8-0.2-1.2,0C27.8,27.3,27.5,27.7,27.5,28.1z"/>
</g>
</svg>
