<?xml version="1.0" encoding="utf-8"?>
<!-- Generator: Adobe Illustrator 23.0.1, SVG Export Plug-In . SVG Version: 6.00 Build 0)  -->
<svg version="1.1" id="Ebene_1" xmlns="http://www.w3.org/2000/svg" xmlns:xlink="http://www.w3.org/1999/xlink" x="0px" y="0px"
	 viewBox="0 0 100 88.4" style="enable-background:new 0 0 100 88.4;" xml:space="preserve">
<style type="text/css">
	.st0{fill-rule:evenodd;clip-rule:evenodd;}
</style>
<path class="st0" d="M78.2,72.9H41c-1.7,0-3-1.4-3-3v-1.2c0-1.7,1.4-3,3-3h37.2c1.7,0,3,1.4,3,3v1.2C81.2,71.6,79.9,72.9,78.2,72.9z
	 M78.2,48.9H41c-1.7,0-3-1.4-3-3v-1.2c0-1.7,1.4-3,3-3h37.2c1.7,0,3,1.4,3,3v1.2C81.2,47.6,79.9,48.9,78.2,48.9z M78.2,24.9H41
	c-1.7,0-3-1.4-3-3v-1.2c0-1.7,1.4-3,3-3h37.2c1.7,0,3,1.4,3,3v1.2C81.2,23.6,79.9,24.9,78.2,24.9z M27.8,72.9h-6c-1.7,0-3-1.4-3-3
	v-1.2c0-1.7,1.4-3,3-3h6c1.7,0,3,1.4,3,3v1.2C30.8,71.6,29.5,72.9,27.8,72.9z M27.8,48.9h-6c-1.7,0-3-1.4-3-3v-1.2c0-1.7,1.4-3,3-3
	h6c1.7,0,3,1.4,3,3v1.2C30.8,47.6,29.5,48.9,27.8,48.9z M27.8,24.9h-6c-1.7,0-3-1.4-3-3v-1.2c0-1.7,1.4-3,3-3h6c1.7,0,3,1.4,3,3v1.2
	C30.8,23.6,29.5,24.9,27.8,24.9z"/>
</svg>
