<?xml version="1.0" encoding="utf-8"?>
<!-- Generator: Adobe Illustrator 23.0.1, SVG Export Plug-In . SVG Version: 6.00 Build 0)  -->
<svg version="1.1" id="Ebene_1" xmlns="http://www.w3.org/2000/svg" xmlns:xlink="http://www.w3.org/1999/xlink" x="0px" y="0px"
	 viewBox="0 0 100 100" style="enable-background:new 0 0 100 100;" xml:space="preserve">
<style type="text/css">
	.st0{fill-rule:evenodd;clip-rule:evenodd;}
</style>
<path class="st0" d="M78.2,78.7H41c-1.7,0-3-1.4-3-3v-1.2c0-1.7,1.4-3,3-3h37.2c1.7,0,3,1.4,3,3v1.2C81.2,77.4,79.9,78.7,78.2,78.7z
	 M78.2,54.7H41c-1.7,0-3-1.4-3-3v-1.2c0-1.7,1.4-3,3-3h37.2c1.7,0,3,1.4,3,3v1.2C81.2,53.4,79.9,54.7,78.2,54.7z M78.2,30.7H41
	c-1.7,0-3-1.4-3-3v-1.2c0-1.7,1.4-3,3-3h37.2c1.7,0,3,1.4,3,3v1.2C81.2,29.4,79.9,30.7,78.2,30.7z M27.8,78.7h-6c-1.7,0-3-1.4-3-3
	v-1.2c0-1.7,1.4-3,3-3h6c1.7,0,3,1.4,3,3v1.2C30.8,77.4,29.5,78.7,27.8,78.7z M27.8,54.7h-6c-1.7,0-3-1.4-3-3v-1.2c0-1.7,1.4-3,3-3
	h6c1.7,0,3,1.4,3,3v1.2C30.8,53.4,29.5,54.7,27.8,54.7z M27.8,30.7h-6c-1.7,0-3-1.4-3-3v-1.2c0-1.7,1.4-3,3-3h6c1.7,0,3,1.4,3,3v1.2
	C30.8,29.4,29.5,30.7,27.8,30.7z"/>
</svg>
