<?xml version="1.0" encoding="utf-8"?>
<!-- Generator: Adobe Illustrator 23.0.1, SVG Export Plug-In . SVG Version: 6.00 Build 0)  -->
<svg version="1.1" id="Ebene_1" xmlns="http://www.w3.org/2000/svg" xmlns:xlink="http://www.w3.org/1999/xlink" x="0px" y="0px"
	 viewBox="0 0 77.7 84.5" style="enable-background:new 0 0 77.7 84.5;" xml:space="preserve">
<path d="M59.1,10.1h-40c-3.3,0-6,2.7-6,6v52c0,3.3,2.7,6,6,6h40c3.3,0,6-2.7,6-6v-52C65.1,12.8,62.4,10.1,59.1,10.1z M61.1,16.1v46
	h-34v-48h32C60.2,14.1,61.1,15,61.1,16.1z M19.1,14.1h6v48h-5c-1.1,0-2.2,0.4-3,1v-47C17.1,15,18,14.1,19.1,14.1z M59.1,70.1h-40
	c-1.1,0-2-0.9-2-2v-1c0-1.7,1.3-3,3-3h41v2h-41c-0.6,0-1,0.4-1,1s0.4,1,1,1h41C61.1,69.2,60.2,70.1,59.1,70.1z"/>
</svg>
