<?xml version="1.0" encoding="utf-8"?>
<!-- Generator: Adobe Illustrator 23.0.1, SVG Export Plug-In . SVG Version: 6.00 Build 0)  -->
<svg version="1.1" id="Ebene_1" xmlns="http://www.w3.org/2000/svg" xmlns:xlink="http://www.w3.org/1999/xlink" x="0px" y="0px"
	 viewBox="0 0 88.7 96.1" style="enable-background:new 0 0 88.7 96.1;" xml:space="preserve">
<path d="M15.7,63.2c-1.1,0-2-0.9-2-2s0.9-2,2-2h6c1.1,0,2,0.9,2,2s-0.9,2-2,2H15.7z M21.7,51.2c1.1,0,2-0.9,2-2s-0.9-2-2-2h-6
	c-1.1,0-2,0.9-2,2s0.9,2,2,2H21.7z M63.7,17.2h-32v64h32c3.3,0,6-2.7,6-6v-52C69.7,19.9,67,17.2,63.7,17.2z M21.7,39.2
	c1.1,0,2-0.9,2-2s-0.9-2-2-2h-6c-1.1,0-2,0.9-2,2s0.9,2,2,2H21.7z M17.7,23.2v10h4c2.2,0,4,1.8,4,4s-1.8,4-4,4h-4v4h4
	c2.2,0,4,1.8,4,4s-1.8,4-4,4h-4v4h4c2.2,0,4,1.8,4,4c0,2.2-1.8,4-4,4h-4v10c0,3.3,2.7,6,6,6h6v-64h-6C20.4,17.2,17.7,19.9,17.7,23.2
	z"/>
</svg>
